<?xml version="1.0" encoding="utf-8"?>
<!-- Generator: Adobe Illustrator 23.0.4, SVG Export Plug-In . SVG Version: 6.00 Build 0)  -->
<svg version="1.1" id="Layer_1" xmlns:serif="http://www.serif.com/"
	 xmlns="http://www.w3.org/2000/svg" xmlns:xlink="http://www.w3.org/1999/xlink" x="0px" y="0px" viewBox="0 0 32 40"
	 style="enable-background:new 0 0 32 40;" xml:space="preserve">
<style type="text/css">
	.st0{fill:none;}
	.st1{fill:#FFFFFF;}
</style>
<path serif:id="left move arrow back" class="st0" d="M0,0v32h32V0H0z"/>
<path class="st1" d="M11,19.8c0-0.1,0-0.1,0.1-0.2c0.1-0.2,0.1-0.2,0.2-0.3l8-8c0.1-0.1,0.2-0.2,0.3-0.2c0.4-0.2,1,0,1.2,0.4
	c0.2,0.3,0.2,0.8,0,1.1c0,0.1-0.1,0.1-0.1,0.2L13.4,20l7.3,7.3l0.1,0.2c0,0.1,0.1,0.1,0.1,0.2c0.2,0.4,0,1-0.4,1.2
	c-0.3,0.2-0.8,0.2-1.1,0c-0.1,0-0.1-0.1-0.2-0.1l-8-8c0-0.1-0.1-0.1-0.1-0.2c-0.1-0.1-0.1-0.2-0.1-0.4C11,20.1,11,19.9,11,19.8z"/>
</svg>
