<?xml version="1.0" encoding="utf-8"?>
<!-- Generator: Adobe Illustrator 23.0.4, SVG Export Plug-In . SVG Version: 6.00 Build 0)  -->
<svg version="1.1" id="Layer_1" xmlns="http://www.w3.org/2000/svg" xmlns:xlink="http://www.w3.org/1999/xlink" x="0px" y="0px"
	 viewBox="0 0 40 40" style="enable-background:new 0 0 40 40;" xml:space="preserve">
<style type="text/css">
	.st0{fill:#FFFFFF;}
</style>
<path class="st0" d="M17,38.6c-0.8,0-1.4-0.6-1.5-1.4l-0.2-3.7c-0.5-0.2-0.9-0.3-1.3-0.5l-2.8,2.5c-0.6,0.5-1.5,0.5-2.1-0.1L4.8,31
	c-0.6-0.6-0.6-1.5-0.1-2.1l2.5-2.8c-0.2-0.4-0.4-0.9-0.5-1.3L3,24.7c-0.8,0-1.4-0.7-1.4-1.5v-6c0-0.8,0.6-1.4,1.4-1.5l3.7-0.2
	C6.8,15,7,14.5,7.2,14.1l-2.5-2.8c-0.5-0.6-0.5-1.5,0.1-2.1L9.1,5c0.6-0.6,1.5-0.6,2.1-0.1l2.8,2.5c0.4-0.2,0.9-0.4,1.3-0.5l0.2-3.7
	c0-0.8,0.7-1.4,1.5-1.4h6c0.8,0,1.4,0.6,1.5,1.4l0.2,3.7c0.4,0.2,0.9,0.3,1.3,0.5l2.8-2.5c0.6-0.5,1.5-0.5,2.1,0.1l4.3,4.3
	c0.6,0.6,0.6,1.5,0.1,2.1l-2.5,2.8c0.2,0.4,0.4,0.9,0.5,1.3l3.7,0.2c0.8,0,1.4,0.7,1.4,1.5v6c0,0.8-0.6,1.4-1.4,1.5l-3.7,0.2
	c-0.2,0.5-0.3,0.9-0.5,1.3l2.5,2.8c0.5,0.6,0.5,1.5-0.1,2.1l-4.3,4.3c-0.6,0.6-1.5,0.6-2.1,0.1l-2.8-2.5c-0.4,0.2-0.9,0.4-1.3,0.5
	l-0.2,3.7c0,0.8-0.7,1.4-1.5,1.4L17,38.6z M13.7,29.6c0.3,0,0.5,0.1,0.7,0.2c0.8,0.5,1.7,0.8,2.6,1.1c0.6,0.2,1.1,0.7,1.1,1.4
	l0.2,3.3h3.2l0.2-3.3c0-0.6,0.5-1.2,1.1-1.4c0.9-0.2,1.8-0.6,2.6-1.1c0.6-0.3,1.3-0.2,1.7,0.2l2.5,2.2l2.3-2.3l-2.2-2.5
	c-0.4-0.5-0.5-1.2-0.2-1.7c0.5-0.8,0.8-1.7,1.1-2.6c0.2-0.6,0.7-1.1,1.4-1.1l3.3-0.2v-3.2l-3.3-0.2c-0.6,0-1.2-0.5-1.4-1.1
	c-0.2-0.9-0.6-1.8-1.1-2.6c-0.3-0.6-0.2-1.3,0.2-1.7l2.2-2.5l-2.3-2.3l-2.5,2.2c-0.5,0.4-1.2,0.5-1.7,0.2c-0.8-0.5-1.7-0.8-2.6-1.1
	c-0.6-0.2-1.1-0.7-1.1-1.4l-0.2-3.3h-3.2l-0.2,3.3c0,0.6-0.5,1.2-1.1,1.4c-0.9,0.2-1.8,0.6-2.6,1.1c-0.6,0.3-1.3,0.2-1.7-0.2
	l-2.5-2.2L8,10.4l2.2,2.5c0.4,0.5,0.5,1.2,0.2,1.7c-0.5,0.8-0.8,1.7-1.1,2.6c-0.2,0.6-0.7,1.1-1.4,1.1l-3.3,0.2v3.2L7.9,22
	c0.6,0,1.2,0.5,1.4,1.1c0.2,0.9,0.6,1.8,1.1,2.6c0.3,0.6,0.2,1.3-0.2,1.7L8,29.9l2.3,2.3l2.5-2.2C13,29.7,13.4,29.6,13.7,29.6z
	 M20,27.3c-3.9,0-7.1-3.2-7.1-7.1S16.1,13,20,13c3.9,0,7.1,3.2,7.1,7.1S23.9,27.3,20,27.3z M20,16c-2.3,0-4.1,1.9-4.1,4.1
	s1.9,4.1,4.1,4.1s4.1-1.9,4.1-4.1S22.3,16,20,16z"/>
</svg>
