<?xml version="1.0" standalone="no"?>
<!DOCTYPE svg PUBLIC "-//W3C//DTD SVG 20010904//EN"
 "http://www.w3.org/TR/2001/REC-SVG-20010904/DTD/svg10.dtd">
<svg version="1.0" xmlns="http://www.w3.org/2000/svg"
 width="4500.000000pt" height="4500.000000pt" viewBox="0 0 4500.000000 4500.000000"
 preserveAspectRatio="xMidYMid meet">
<metadata>
Created by potrace 1.11, written by Peter Selinger 2001-2013
</metadata>
<g transform="translate(0.000000,4500.000000) scale(0.100000,-0.100000)"
fill="#000000" stroke="none">
<path d="M10490 44989 c-1196 -54 -2411 -314 -3530 -756 -2011 -794 -3758
-2178 -4991 -3953 -1197 -1722 -1865 -3706 -1959 -5810 -14 -310 -14 -23630 0
-23940 26 -585 92 -1129 206 -1698 525 -2632 2006 -4987 4159 -6613 1321 -998
2841 -1681 4457 -2003 491 -98 819 -142 1483 -198 194 -16 23732 -24 24125 -8
1250 51 2452 304 3600 757 2011 794 3758 2178 4991 3953 1197 1722 1865 3706
1959 5810 14 310 14 23630 0 23940 -55 1240 -309 2434 -757 3570 -1116 2826
-3367 5077 -6193 6193 -1136 448 -2330 702 -3570 757 -277 12 -23705 11
-23980 -1z m16045 -9008 c176 -6 444 -15 595 -21 3208 -123 5234 -520 6065
-1189 741 -595 1071 -1470 1165 -3086 34 -592 39 -1517 15 -3020 -23 -1472
-29 -2786 -15 -3495 82 -4187 -108 -7550 -519 -9216 -105 -422 -242 -783 -371
-975 -118 -175 -353 -366 -630 -512 -761 -402 -1973 -621 -3685 -666 -452 -12
-10086 -36 -11073 -28 -669 6 -907 12 -1447 37 -2624 122 -4286 455 -4847 970
-254 232 -528 924 -724 1823 -277 1277 -445 3338 -444 5442 0 193 -3 1169 -6
2170 -15 4309 50 6726 217 8050 156 1239 409 1885 969 2469 110 116 210 189
359 265 1062 541 3857 864 8411 972 1123 27 5254 34 5965 10z m-8325 -22653
c0 -2 -679 -975 -1508 -2163 l-1508 -2160 -1188 -3 -1188 -2 84 89 c45 49 958
1023 2028 2165 l1945 2075 668 1 c367 0 667 -1 667 -2z m12030 -2145 c1097
-1180 1997 -2149 1998 -2154 2 -5 -502 -9 -1177 -9 l-1180 0 -24 33 c-24 32
-2926 4240 -2941 4265 -6 9 129 12 661 12 l668 -1 1995 -2146z m-3463 609
l271 -387 -2274 -3 c-1251 -1 -3297 -1 -4548 0 l-2274 3 271 388 271 387 4005
0 4006 0 272 -388z m983 -1588 c149 -212 269 -388 267 -390 -2 -2 -2475 -3
-5495 -2 l-5491 3 272 387 272 388 4952 0 4951 0 272 -386z"/>
<path d="M19320 34389 c-3258 -71 -5345 -428 -6052 -1036 -590 -507 -947
-2129 -1063 -4833 -30 -701 -38 -1269 -32 -2295 6 -1152 28 -2038 53 -2153 22
-102 65 -201 128 -297 164 -245 461 -417 813 -470 99 -15 456 -16 4253 -10
2280 4 4309 11 4510 15 348 7 370 9 465 33 118 31 274 106 365 175 245 186
428 508 517 910 l26 117 -2 4240 c-2 2332 -7 4303 -11 4380 -20 313 -134 577
-352 810 -185 198 -467 347 -741 389 -192 31 -1940 46 -2877 25z"/>
<path d="M31379 21640 c-441 -50 -813 -354 -948 -775 -42 -130 -55 -234 -48
-399 7 -174 34 -284 111 -441 109 -223 270 -388 487 -500 179 -92 317 -125
529 -125 160 0 272 17 396 61 363 127 624 432 705 824 17 80 17 331 0 425 -73
409 -360 746 -747 876 -148 49 -337 70 -485 54z"/>
<path d="M13180 21601 c-339 -76 -609 -289 -755 -596 -89 -188 -125 -442 -95
-675 54 -413 327 -754 714 -889 192 -68 333 -74 516 -26 308 83 572 300 718
590 42 84 88 234 102 334 19 124 8 322 -24 444 -49 190 -157 378 -299 519
-242 240 -597 361 -877 299z"/>
<path d="M30649 17490 c-368 -45 -657 -295 -761 -657 -33 -113 -33 -343 0
-456 106 -369 401 -619 776 -657 301 -30 600 88 781 307 205 248 252 613 122
931 -57 138 -185 295 -312 382 -164 113 -411 174 -606 150z"/>
<path d="M14040 17409 c-395 -102 -663 -453 -663 -864 0 -132 14 -207 63 -333
110 -287 402 -512 711 -548 107 -12 288 40 437 128 86 50 248 218 299 308 83
148 132 362 118 510 -25 250 -146 484 -328 630 -34 28 -107 73 -162 100 -176
88 -321 109 -475 69z"/>
</g>
</svg>
