<svg id="Layer_1" data-name="Layer 1" xmlns="http://www.w3.org/2000/svg" viewBox="0 0 750.5 1335"><defs><style>.cls-1{fill:#007aff;}.cls-2,.cls-4{fill:#fff;}.cls-3{fill:#0c1319;}.cls-4{fill-rule:evenodd;}</style></defs><title>splashscreen</title><rect class="cls-1" y="0.5" width="750.5" height="1334.5"/><path class="cls-2" d="M94.59,0,94.4-.5H44.18L44,0,0,116.33l-.25.66v54.34H19.82l14.4-40.88h68.64l13.89,40.88h41.91ZM44.76,100.37,68.67,33h.51l23.14,67.36Z" transform="translate(0.25 0.5)"/><path class="cls-2" d="M248.38,34.81A43.7,43.7,0,0,0,235,36.87a49.17,49.17,0,0,0-12.08,5.78,45.87,45.87,0,0,0-10,9A45.05,45.05,0,0,0,206,63.09h-.51V38.41H170.74V171.33h36.51v-59.9a73.42,73.42,0,0,1,1.8-16.71,36.45,36.45,0,0,1,6-13.5,29.44,29.44,0,0,1,11.18-9.13q6.94-3.33,17-3.34a64.43,64.43,0,0,1,6.94.39q3.6.38,6.17.9V36.1A28.36,28.36,0,0,0,248.38,34.81Z" transform="translate(0.25 0.5)"/><path class="cls-2" d="M348.39,34.81A43.7,43.7,0,0,0,335,36.87a49.17,49.17,0,0,0-12.08,5.78,45.87,45.87,0,0,0-10,9A45.05,45.05,0,0,0,306,63.09h-.51V38.41H270.75V171.33h36.51v-59.9a73.42,73.42,0,0,1,1.8-16.71,36.45,36.45,0,0,1,6-13.5,29.44,29.44,0,0,1,11.18-9.13q6.95-3.33,17-3.34a64.43,64.43,0,0,1,6.94.39q3.6.38,6.17.9V36.1A28.36,28.36,0,0,0,348.39,34.81Z" transform="translate(0.25 0.5)"/><path class="cls-2" d="M371.79,38.41V171.33H408.3V38.41Zm0-38.91V17.84H408.3V-.5Z" transform="translate(0.25 0.5)"/><path class="cls-2" d="M519.36,38.41l-28,90.76h-.52l-28-90.76H424.49L470,171.33h40.62l45-132.92Z" transform="translate(0.25 0.5)"/><path class="cls-2" d="M691.1,159a139.82,139.82,0,0,1-1-17.22V72.61q0-12.09-5.39-19.41a37,37,0,0,0-13.89-11.45A62,62,0,0,0,652,36.23a149.29,149.29,0,0,0-20.31-1.42,111.54,111.54,0,0,0-22,2.19,62.75,62.75,0,0,0-19.67,7.33A43.68,43.68,0,0,0,575.67,58q-5.67,8.49-6.43,21.34h36.51q1-10.8,7.19-15.43t17-4.62a60.85,60.85,0,0,1,9.13.64,20.41,20.41,0,0,1,7.46,2.57,14.29,14.29,0,0,1,5.14,5.4c1.28,2.31,1.93,5.44,1.93,9.38q.25,5.67-3.35,8.62a24.65,24.65,0,0,1-9.77,4.5,98,98,0,0,1-14.14,2.31q-8,.77-16.19,2.06a153.52,153.52,0,0,0-16.33,3.47,46.23,46.23,0,0,0-14.4,6.55,33.34,33.34,0,0,0-10.28,11.7q-4,7.34-4,18.64a41.77,41.77,0,0,0,3.47,17.74,33.48,33.48,0,0,0,9.65,12.34,40.5,40.5,0,0,0,14.39,7.2,65.43,65.43,0,0,0,17.74,2.32,82.86,82.86,0,0,0,24.17-3.6,47.62,47.62,0,0,0,20.57-12.6A54,54,0,0,0,656,165a49.46,49.46,0,0,0,1.67,6.3h37Q692.14,167.22,691.1,159Zm-37.53-39.08a69.74,69.74,0,0,1-.65,8.23,27.54,27.54,0,0,1-3.47,10.16,24.14,24.14,0,0,1-8.74,8.61q-5.91,3.6-16.71,3.6a46.12,46.12,0,0,1-8.48-.77,20.74,20.74,0,0,1-7.2-2.7,13.8,13.8,0,0,1-4.89-5.27,17.18,17.18,0,0,1-1.8-8.23,17.8,17.8,0,0,1,1.8-8.49,16.61,16.61,0,0,1,4.76-5.52,23.87,23.87,0,0,1,6.94-3.47,64.5,64.5,0,0,1,8.1-2.06q4.37-.77,8.74-1.29t8.36-1.28a60.34,60.34,0,0,0,7.45-1.93,16.41,16.41,0,0,0,5.79-3.21Z" transform="translate(0.25 0.5)"/><path class="cls-2" d="M750,0V-.5H719.38V171.33h30.87V0Z" transform="translate(0.25 0.5)"/><path class="cls-2" d="M90,194.76H48.62L0,323.33l-.25.66v54.34H19.82l14.4-40.88h68.64l13.89,40.88h41.91ZM44.76,307.37,68.67,240h.51l23.14,67.36Z" transform="translate(0.25 0.5)"/><path class="cls-2" d="M248.38,241.81A43.7,43.7,0,0,0,235,243.87a49.17,49.17,0,0,0-12.08,5.78,45.87,45.87,0,0,0-10,9A45.05,45.05,0,0,0,206,270.09h-.51V245.41H170.74V378.33h36.51v-59.9a73.42,73.42,0,0,1,1.8-16.71,36.45,36.45,0,0,1,6-13.5,29.44,29.44,0,0,1,11.18-9.13q6.94-3.33,17-3.34a64.43,64.43,0,0,1,6.94.39q3.6.38,6.17.9V243.1A28.36,28.36,0,0,0,248.38,241.81Z" transform="translate(0.25 0.5)"/><path class="cls-2" d="M348.39,241.81A43.7,43.7,0,0,0,335,243.87a49.17,49.17,0,0,0-12.08,5.78,45.87,45.87,0,0,0-10,9A45.05,45.05,0,0,0,306,270.09h-.51V245.41H270.75V378.33h36.51v-59.9a73.42,73.42,0,0,1,1.8-16.71,36.45,36.45,0,0,1,6-13.5,29.44,29.44,0,0,1,11.18-9.13q6.95-3.33,17-3.34a64.43,64.43,0,0,1,6.94.39q3.6.38,6.17.9V243.1A28.36,28.36,0,0,0,348.39,241.81Z" transform="translate(0.25 0.5)"/><path class="cls-2" d="M371.79,245.41V378.33H408.3V245.41Zm0-50.65v30.08H408.3V194.76Z" transform="translate(0.25 0.5)"/><path class="cls-2" d="M519.36,245.41l-28,90.76h-.52l-28-90.76H424.49L470,378.33h40.62l45-132.92Z" transform="translate(0.25 0.5)"/><path class="cls-2" d="M691.1,366a139.82,139.82,0,0,1-1-17.22V279.61q0-12.09-5.39-19.41a37,37,0,0,0-13.89-11.45A62,62,0,0,0,652,243.23a149.29,149.29,0,0,0-20.31-1.42,111.54,111.54,0,0,0-22,2.19,62.75,62.75,0,0,0-19.67,7.33A43.68,43.68,0,0,0,575.67,265q-5.67,8.49-6.43,21.34h36.51q1-10.8,7.19-15.43t17-4.62a60.85,60.85,0,0,1,9.13.64,20.41,20.41,0,0,1,7.46,2.57,14.29,14.29,0,0,1,5.14,5.4c1.28,2.31,1.93,5.44,1.93,9.38q.25,5.67-3.35,8.62a24.65,24.65,0,0,1-9.77,4.5,98,98,0,0,1-14.14,2.31q-8,.76-16.19,2.06a153.52,153.52,0,0,0-16.33,3.47,46.23,46.23,0,0,0-14.4,6.55,33.34,33.34,0,0,0-10.28,11.7q-4,7.33-4,18.64a41.77,41.77,0,0,0,3.47,17.74,33.48,33.48,0,0,0,9.65,12.34,40.5,40.5,0,0,0,14.39,7.2,65.43,65.43,0,0,0,17.74,2.32,82.86,82.86,0,0,0,24.17-3.6,47.62,47.62,0,0,0,20.57-12.6A54,54,0,0,0,656,372a49.46,49.46,0,0,0,1.67,6.3h37Q692.14,374.22,691.1,366Zm-37.53-39.08a69.74,69.74,0,0,1-.65,8.23,27.54,27.54,0,0,1-3.47,10.16,24.14,24.14,0,0,1-8.74,8.61q-5.91,3.6-16.71,3.6a46.12,46.12,0,0,1-8.48-.77,20.74,20.74,0,0,1-7.2-2.7,13.8,13.8,0,0,1-4.89-5.27,17.18,17.18,0,0,1-1.8-8.23,17.8,17.8,0,0,1,1.8-8.49,16.61,16.61,0,0,1,4.76-5.52,23.87,23.87,0,0,1,6.94-3.47,64.5,64.5,0,0,1,8.1-2.06q4.37-.76,8.74-1.29t8.36-1.28a60.34,60.34,0,0,0,7.45-1.93,16.41,16.41,0,0,0,5.79-3.21Z" transform="translate(0.25 0.5)"/><path class="cls-2" d="M719.38,194.76V378.33h30.87V194.76Z" transform="translate(0.25 0.5)"/><path class="cls-2" d="M90,403.76H48.62L0,532.33l-.25.66v54.34H19.82l14.4-40.88h68.64l13.89,40.88h41.91ZM44.76,516.37,68.67,449h.51l23.14,67.36Z" transform="translate(0.25 0.5)"/><path class="cls-2" d="M248.38,450.81A43.7,43.7,0,0,0,235,452.87a49.17,49.17,0,0,0-12.08,5.78,45.87,45.87,0,0,0-10,9A45.05,45.05,0,0,0,206,479.09h-.51V454.41H170.74V587.33h36.51v-59.9a73.42,73.42,0,0,1,1.8-16.71,36.45,36.45,0,0,1,6-13.5,26.84,26.84,0,0,1,3.89-4.29l0,0a31.11,31.11,0,0,1,7.25-4.81q6.94-3.33,17-3.34a64.43,64.43,0,0,1,6.94.39c1.07.11,2.06.23,3,.36q1.76.25,3.18.54V452.1A28.36,28.36,0,0,0,248.38,450.81Z" transform="translate(0.25 0.5)"/><path class="cls-2" d="M348.39,450.81A43.7,43.7,0,0,0,335,452.87a49.17,49.17,0,0,0-12.08,5.78,45.87,45.87,0,0,0-10,9A45.05,45.05,0,0,0,306,479.09h-.51V454.41H270.75V587.33h36.51v-59.9a73.42,73.42,0,0,1,1.8-16.71,36.45,36.45,0,0,1,6-13.5,29.44,29.44,0,0,1,11.18-9.13,32.29,32.29,0,0,1,8.2-2.59,48.1,48.1,0,0,1,8.77-.75,64.43,64.43,0,0,1,6.94.39c1.07.11,2.06.23,3,.36q1.76.25,3.18.54V452.1A28.36,28.36,0,0,0,348.39,450.81Z" transform="translate(0.25 0.5)"/><path class="cls-2" d="M371.79,454.41V587.33H408.3V454.41Zm0-50.65v30.08H408.3V403.76Z" transform="translate(0.25 0.5)"/><path class="cls-2" d="M519.36,454.41l-9.69,31.38-18.33,59.38h-.52L472.4,485.5l-9.6-31.09H424.49l10.64,31.09L460.28,559,470,587.33h40.62l29.59-87.42,15.4-45.5Z" transform="translate(0.25 0.5)"/><path class="cls-2" d="M691.1,575a139.82,139.82,0,0,1-1-17.22V488.61q0-12.09-5.39-19.41a37,37,0,0,0-13.89-11.45A62,62,0,0,0,652,452.23a149.29,149.29,0,0,0-20.31-1.42,111.54,111.54,0,0,0-22,2.19,62.75,62.75,0,0,0-19.67,7.33A43.68,43.68,0,0,0,575.67,474q-5.67,8.49-6.43,21.34h36.51q1-10.8,7.19-15.43t17-4.62a60.85,60.85,0,0,1,9.13.64,20.41,20.41,0,0,1,7.46,2.57,14.29,14.29,0,0,1,5.14,5.4c1.28,2.31,1.93,5.44,1.93,9.38q.25,5.67-3.35,8.62a24.65,24.65,0,0,1-9.77,4.5,98,98,0,0,1-14.14,2.31q-8,.76-16.19,2.06a153.52,153.52,0,0,0-16.33,3.47,46.23,46.23,0,0,0-14.4,6.55,33.34,33.34,0,0,0-10.28,11.7q-4,7.34-4,18.64a41.77,41.77,0,0,0,3.47,17.74,33.48,33.48,0,0,0,9.65,12.34,40.5,40.5,0,0,0,14.39,7.2,65.43,65.43,0,0,0,17.74,2.32,82.86,82.86,0,0,0,24.17-3.6,47.62,47.62,0,0,0,20.57-12.6A54,54,0,0,0,656,581a49.46,49.46,0,0,0,1.67,6.3h37Q692.14,583.22,691.1,575Zm-37.53-39.08a69.74,69.74,0,0,1-.65,8.23,27.54,27.54,0,0,1-3.47,10.16,24.14,24.14,0,0,1-8.74,8.61q-5.91,3.6-16.71,3.6a46.12,46.12,0,0,1-8.48-.77,20.74,20.74,0,0,1-7.2-2.7,13.8,13.8,0,0,1-4.89-5.27,17.18,17.18,0,0,1-1.8-8.23,17.8,17.8,0,0,1,1.8-8.49,16.61,16.61,0,0,1,4.76-5.52,23.87,23.87,0,0,1,6.94-3.47,64.5,64.5,0,0,1,8.1-2.06q4.37-.76,8.74-1.29t8.36-1.28a60.34,60.34,0,0,0,7.45-1.93,16.41,16.41,0,0,0,5.79-3.21Z" transform="translate(0.25 0.5)"/><path class="cls-2" d="M719.38,403.76V587.33h30.87V403.76Z" transform="translate(0.25 0.5)"/><path class="cls-2" d="M90,610.76H48.62L0,739.33l-.25.66v54.34H19.82l14.4-40.88h68.64l13.89,40.88h41.91ZM44.76,723.37,68.67,656h.51l23.14,67.36Z" transform="translate(0.25 0.5)"/><path class="cls-2" d="M248.38,657.81A43.7,43.7,0,0,0,235,659.87a49.17,49.17,0,0,0-12.08,5.78,45.87,45.87,0,0,0-10,9A45.05,45.05,0,0,0,206,686.09h-.51V661.41H170.74V794.33h36.51v-59.9a73.42,73.42,0,0,1,1.8-16.71,36.45,36.45,0,0,1,6-13.5,29.44,29.44,0,0,1,11.18-9.13q6.94-3.33,17-3.34a64.43,64.43,0,0,1,6.94.39q3.6.38,6.17.9V659.1A28.36,28.36,0,0,0,248.38,657.81Z" transform="translate(0.25 0.5)"/><path class="cls-2" d="M348.39,657.81A43.7,43.7,0,0,0,335,659.87l-1.09.37a48.6,48.6,0,0,0-11,5.41,45.87,45.87,0,0,0-10,9A45.05,45.05,0,0,0,306,686.09h-.51V661.41H270.75V794.33h36.51v-59.9a78.29,78.29,0,0,1,.64-10.24,62.27,62.27,0,0,1,1.16-6.47c.3-1.3.65-2.55,1.06-3.77a35.07,35.07,0,0,1,5-9.73,29.44,29.44,0,0,1,11.18-9.13q6.95-3.33,17-3.34a64.43,64.43,0,0,1,6.94.39q3.6.38,6.17.9V659.1A28.36,28.36,0,0,0,348.39,657.81Z" transform="translate(0.25 0.5)"/><path class="cls-2" d="M371.79,661.41V794.33H408.3V661.41Zm0-50.65v30.08H408.3V610.76Z" transform="translate(0.25 0.5)"/><path class="cls-2" d="M519.36,661.41l-28,90.76h-.52l-15.9-51.51L462.8,661.41H424.49l17.12,50,4.62,13.51,5,14.47L470,794.33h40.62l45-132.92Z" transform="translate(0.25 0.5)"/><path class="cls-2" d="M691.1,782a139.82,139.82,0,0,1-1-17.22V695.61q0-12.09-5.39-19.41a37,37,0,0,0-13.89-11.45A62,62,0,0,0,652,659.23a149.29,149.29,0,0,0-20.31-1.42,111.54,111.54,0,0,0-22,2.19,62.75,62.75,0,0,0-19.67,7.33A43.58,43.58,0,0,0,575.67,681q-5.67,8.49-6.43,21.34h36.51q1-10.8,7.19-15.42t17-4.63a60.85,60.85,0,0,1,9.13.64,20.41,20.41,0,0,1,7.46,2.57,14.29,14.29,0,0,1,5.14,5.4c1.28,2.31,1.93,5.44,1.93,9.38q.25,5.67-3.35,8.62a24.65,24.65,0,0,1-9.77,4.5,96.64,96.64,0,0,1-14.14,2.31q-8,.76-16.19,2.06a153.52,153.52,0,0,0-16.33,3.47,46.23,46.23,0,0,0-14.4,6.55,33.34,33.34,0,0,0-10.28,11.7q-4,7.34-4,18.64a41.77,41.77,0,0,0,3.47,17.74,33.48,33.48,0,0,0,9.65,12.34,40.5,40.5,0,0,0,14.39,7.2,65.43,65.43,0,0,0,17.74,2.32,82.86,82.86,0,0,0,24.17-3.6,47.62,47.62,0,0,0,20.57-12.6A54,54,0,0,0,656,788a49.46,49.46,0,0,0,1.67,6.3h37Q692.14,790.22,691.1,782Zm-37.53-39.08a69.74,69.74,0,0,1-.65,8.23,27.43,27.43,0,0,1-3.47,10.15,24.08,24.08,0,0,1-8.74,8.62q-5.91,3.6-16.71,3.6a46.12,46.12,0,0,1-8.48-.77,20.74,20.74,0,0,1-7.2-2.7,13.8,13.8,0,0,1-4.89-5.27,17.18,17.18,0,0,1-1.8-8.23,17.83,17.83,0,0,1,1.8-8.49,16.61,16.61,0,0,1,4.76-5.52,23.87,23.87,0,0,1,6.94-3.47,64.5,64.5,0,0,1,8.1-2.06q4.37-.76,8.74-1.29t8.36-1.28a60.34,60.34,0,0,0,7.45-1.93,16.41,16.41,0,0,0,5.79-3.21Z" transform="translate(0.25 0.5)"/><path class="cls-2" d="M719.38,610.76V794.33h30.87V610.76Z" transform="translate(0.25 0.5)"/><path class="cls-2" d="M90,816.76H48.62L0,945.33l-.25.66v54.34H19.82l14.4-40.88h68.64l13.89,40.88h41.91ZM44.76,929.37,68.67,862h.51l23.14,67.36Z" transform="translate(0.25 0.5)"/><path class="cls-2" d="M248.38,863.81A43.7,43.7,0,0,0,235,865.87a49.17,49.17,0,0,0-12.08,5.78,45.87,45.87,0,0,0-10,9A45.05,45.05,0,0,0,206,892.09h-.51V867.41H170.74v132.92h36.51v-59.9a73.42,73.42,0,0,1,1.8-16.71,36.45,36.45,0,0,1,6-13.5,29.44,29.44,0,0,1,11.18-9.13q6.94-3.33,17-3.34a64.43,64.43,0,0,1,6.94.39q3.6.38,6.17.9V865.1A28.36,28.36,0,0,0,248.38,863.81Z" transform="translate(0.25 0.5)"/><path class="cls-2" d="M348.39,863.81A43.7,43.7,0,0,0,335,865.87a49.17,49.17,0,0,0-12.08,5.78,45.87,45.87,0,0,0-10,9A45.05,45.05,0,0,0,306,892.09h-.51V867.41H270.75v132.92h36.51v-59.9a73.42,73.42,0,0,1,1.8-16.71,36.45,36.45,0,0,1,6-13.5,29.44,29.44,0,0,1,11.18-9.13q6.95-3.33,17-3.34a64.43,64.43,0,0,1,6.94.39q3.6.38,6.17.9V865.1A28.36,28.36,0,0,0,348.39,863.81Z" transform="translate(0.25 0.5)"/><path class="cls-2" d="M371.79,867.41v132.92H408.3V867.41Zm0-50.65v30.08H408.3V816.76Z" transform="translate(0.25 0.5)"/><path class="cls-2" d="M519.36,867.41l-28,90.76h-.52l-28-90.76H424.49L470,1000.33h40.62l45-132.92Z" transform="translate(0.25 0.5)"/><path class="cls-2" d="M691.1,988a139.82,139.82,0,0,1-1-17.22V901.61q0-12.09-5.39-19.41a37,37,0,0,0-13.89-11.45A62,62,0,0,0,652,865.23a149.29,149.29,0,0,0-20.31-1.42,111.54,111.54,0,0,0-22,2.19,62.75,62.75,0,0,0-19.67,7.33A43.58,43.58,0,0,0,575.67,887q-5.67,8.49-6.43,21.34h36.51q1-10.8,7.19-15.42t17-4.63a60.85,60.85,0,0,1,9.13.64,20.41,20.41,0,0,1,7.46,2.57,14.29,14.29,0,0,1,5.14,5.4c1.28,2.31,1.93,5.44,1.93,9.38q.25,5.67-3.35,8.62a24.65,24.65,0,0,1-9.77,4.5,96.64,96.64,0,0,1-14.14,2.31q-8,.76-16.19,2.06a153.52,153.52,0,0,0-16.33,3.47,46.23,46.23,0,0,0-14.4,6.55,33.34,33.34,0,0,0-10.28,11.7q-4,7.34-4,18.64a41.77,41.77,0,0,0,3.47,17.74,33.48,33.48,0,0,0,9.65,12.34,40.5,40.5,0,0,0,14.39,7.2,65.43,65.43,0,0,0,17.74,2.32,82.86,82.86,0,0,0,24.17-3.6,47.62,47.62,0,0,0,20.57-12.6A54,54,0,0,0,656,994a49.46,49.46,0,0,0,1.67,6.3h37Q692.14,996.22,691.1,988Zm-37.53-39.08a69.74,69.74,0,0,1-.65,8.23,27.43,27.43,0,0,1-3.47,10.15,24.08,24.08,0,0,1-8.74,8.62q-5.91,3.6-16.71,3.6a46.12,46.12,0,0,1-8.48-.77,20.74,20.74,0,0,1-7.2-2.7,13.8,13.8,0,0,1-4.89-5.27,17.18,17.18,0,0,1-1.8-8.23,17.83,17.83,0,0,1,1.8-8.49,16.61,16.61,0,0,1,4.76-5.52,23.87,23.87,0,0,1,6.94-3.47,64.5,64.5,0,0,1,8.1-2.06q4.37-.76,8.74-1.29t8.36-1.28a60.34,60.34,0,0,0,7.45-1.93,16.41,16.41,0,0,0,5.79-3.21Z" transform="translate(0.25 0.5)"/><path class="cls-2" d="M719.38,816.76v183.57h30.87V816.76Z" transform="translate(0.25 0.5)"/><path class="cls-2" d="M90,1023.76H48.62L0,1152.33l-.25.66v54.34H19.82l14.4-40.88h68.64l13.89,40.88h41.91ZM44.76,1136.37,68.67,1069h.51l23.14,67.36Z" transform="translate(0.25 0.5)"/><path class="cls-2" d="M248.38,1070.81a43.7,43.7,0,0,0-13.37,2.06,49.17,49.17,0,0,0-12.08,5.78,45.87,45.87,0,0,0-10,9,45.05,45.05,0,0,0-6.94,11.44h-.51v-24.68H170.74v132.92h36.51v-59.9a73.42,73.42,0,0,1,1.8-16.71,36.45,36.45,0,0,1,6-13.5,29.44,29.44,0,0,1,11.18-9.13q6.94-3.33,17-3.34a64.43,64.43,0,0,1,6.94.39q3.6.38,6.17.9V1072.1A28.36,28.36,0,0,0,248.38,1070.81Z" transform="translate(0.25 0.5)"/><path class="cls-2" d="M348.39,1070.81a43.7,43.7,0,0,0-13.37,2.06,49.17,49.17,0,0,0-12.08,5.78,45.87,45.87,0,0,0-10,9,45.05,45.05,0,0,0-6.94,11.44h-.51v-24.68H270.75v132.92h36.51v-59.9a73.42,73.42,0,0,1,1.8-16.71,36.45,36.45,0,0,1,6-13.5,29.44,29.44,0,0,1,11.18-9.13q6.95-3.33,17-3.34a64.43,64.43,0,0,1,6.94.39q3.6.38,6.17.9V1072.1A28.36,28.36,0,0,0,348.39,1070.81Z" transform="translate(0.25 0.5)"/><path class="cls-2" d="M371.79,1074.41v132.92H408.3V1074.41Zm0-50.65v30.08H408.3v-30.08Z" transform="translate(0.25 0.5)"/><path class="cls-2" d="M519.36,1074.41l-28,90.76h-.52l-28-90.76H424.49L470,1207.33h40.62l45-132.92Z" transform="translate(0.25 0.5)"/><path class="cls-2" d="M691.1,1195a139.82,139.82,0,0,1-1-17.22v-69.16q0-12.09-5.39-19.41a37,37,0,0,0-13.89-11.45,62,62,0,0,0-18.77-5.52,149.29,149.29,0,0,0-20.31-1.42,111.54,111.54,0,0,0-22,2.19,62.75,62.75,0,0,0-19.67,7.33A43.58,43.58,0,0,0,575.67,1094q-5.67,8.49-6.43,21.34h36.51q1-10.8,7.19-15.42t17-4.63a60.85,60.85,0,0,1,9.13.64,20.41,20.41,0,0,1,7.46,2.57,14.29,14.29,0,0,1,5.14,5.4c1.28,2.31,1.93,5.44,1.93,9.38q.25,5.67-3.35,8.62a24.65,24.65,0,0,1-9.77,4.5,96.64,96.64,0,0,1-14.14,2.31q-8,.77-16.19,2.06a153.52,153.52,0,0,0-16.33,3.47,46.23,46.23,0,0,0-14.4,6.55,33.34,33.34,0,0,0-10.28,11.7q-4,7.33-4,18.64a41.77,41.77,0,0,0,3.47,17.74,33.48,33.48,0,0,0,9.65,12.34,40.5,40.5,0,0,0,14.39,7.2,65.43,65.43,0,0,0,17.74,2.32,82.86,82.86,0,0,0,24.17-3.6,47.62,47.62,0,0,0,20.57-12.6,54,54,0,0,0,.9,6.55,49.46,49.46,0,0,0,1.67,6.3h37Q692.14,1203.22,691.1,1195Zm-37.53-39.08a69.74,69.74,0,0,1-.65,8.23,27.43,27.43,0,0,1-3.47,10.15,24.08,24.08,0,0,1-8.74,8.62q-5.91,3.6-16.71,3.6a46.12,46.12,0,0,1-8.48-.77,20.74,20.74,0,0,1-7.2-2.7,13.8,13.8,0,0,1-4.89-5.27,17.18,17.18,0,0,1-1.8-8.23,17.83,17.83,0,0,1,1.8-8.49,16.61,16.61,0,0,1,4.76-5.52,23.87,23.87,0,0,1,6.94-3.47,64.5,64.5,0,0,1,8.1-2.06q4.37-.76,8.74-1.29t8.36-1.28a60.34,60.34,0,0,0,7.45-1.93,16.41,16.41,0,0,0,5.79-3.21Z" transform="translate(0.25 0.5)"/><path class="cls-2" d="M719.38,1023.76v183.57h30.87V1023.76Z" transform="translate(0.25 0.5)"/><path class="cls-2" d="M127.84,1333.93l-22.06-59L90,1232.76H48.62L10.15,1334.5H48.62L68.67,1278h.51L82,1315.33l6.39,18.6.2.57h39.47Z" transform="translate(0.25 0.5)"/><path class="cls-2" d="M248.38,1279.81a43.7,43.7,0,0,0-13.37,2.06,49.17,49.17,0,0,0-12.08,5.78,45.87,45.87,0,0,0-10,9,45.05,45.05,0,0,0-6.94,11.44h-.51v-24.68H170.74v51.09h39.9a4.45,4.45,0,0,1,.22-.57,34.24,34.24,0,0,1,4.23-7.71,29.44,29.44,0,0,1,11.18-9.13q6.94-3.33,17-3.34a64.43,64.43,0,0,1,6.94.39q3.6.38,6.17.9V1281.1A28.36,28.36,0,0,0,248.38,1279.81Z" transform="translate(0.25 0.5)"/><path class="cls-2" d="M348.39,1279.81a43.7,43.7,0,0,0-13.37,2.06,49.17,49.17,0,0,0-12.08,5.78,45.87,45.87,0,0,0-10,9,45.05,45.05,0,0,0-6.94,11.44h-.51v-24.68H270.75v51.09h39.9a4.45,4.45,0,0,1,.22-.57,34.24,34.24,0,0,1,4.23-7.71,29.44,29.44,0,0,1,11.18-9.13q6.95-3.33,17-3.34a64.43,64.43,0,0,1,6.94.39q3.6.38,6.17.9V1281.1A28.36,28.36,0,0,0,348.39,1279.81Z" transform="translate(0.25 0.5)"/><path class="cls-2" d="M371.79,1283.41v51.09H408.3v-51.09Zm0-50.65v30.08H408.3v-30.08Z" transform="translate(0.25 0.5)"/><path class="cls-2" d="M519.36,1283.41l-15.6,50.52-.17.57h34.73l.19-.57,17.1-50.52Zm-41,50.52-15.6-50.52H424.49l17.3,50.52.19.57h36.59Z" transform="translate(0.25 0.5)"/><path class="cls-2" d="M684.68,1298.2a37,37,0,0,0-13.89-11.45c-.92-.44-1.85-.86-2.79-1.25a63.29,63.29,0,0,0-16-4.27,149.29,149.29,0,0,0-20.31-1.42,111.54,111.54,0,0,0-22,2.19,62.75,62.75,0,0,0-19.67,7.33A43.58,43.58,0,0,0,575.67,1303q-5.67,8.49-6.43,21.34h36.51q1-10.8,7.19-15.42t17-4.63a60.85,60.85,0,0,1,9.13.64,20.41,20.41,0,0,1,7.46,2.57,14.29,14.29,0,0,1,5.14,5.4c1.28,2.31,1.93,5.44,1.93,9.38q.25,5.67-3.35,8.62a20.48,20.48,0,0,1-5.35,3.08c-.49.2-1,.39-1.52.57h46.72v-16.89Q690.07,1305.52,684.68,1298.2Z" transform="translate(0.25 0.5)"/><path class="cls-2" d="M719.38,1232.76V1334.5h30.87V1232.76Z" transform="translate(0.25 0.5)"/><rect class="cls-2" x="82.25" y="1275.43" width="586" height="59"/><path class="cls-3" d="M113.72,1292.8l6.14,16.42h-3.74l-1.25-3.66h-6.14l-1.29,3.66h-3.63L110,1292.8Zm.21,10.07-2.07-6h0l-2.13,6Z" transform="translate(0.25 0.5)"/><path class="cls-3" d="M124.05,1297.33v2.21h0a4,4,0,0,1,.62-1,4.22,4.22,0,0,1,.89-.8,4.37,4.37,0,0,1,1.09-.52,3.94,3.94,0,0,1,1.19-.18,2.37,2.37,0,0,1,.71.11v3a5.12,5.12,0,0,0-.55-.08,4.4,4.4,0,0,0-.62,0,3.49,3.49,0,0,0-1.52.3,2.68,2.68,0,0,0-1,.82,3.34,3.34,0,0,0-.54,1.21,6.36,6.36,0,0,0-.16,1.49v5.36H121v-11.89Z" transform="translate(0.25 0.5)"/><path class="cls-3" d="M133,1297.33v2.21h0a4.34,4.34,0,0,1,.62-1,4,4,0,0,1,.9-.8,4.48,4.48,0,0,1,1.08-.52,4,4,0,0,1,1.2-.18,2.41,2.41,0,0,1,.71.11v3a5.53,5.53,0,0,0-.55-.08,4.49,4.49,0,0,0-.62,0,3.46,3.46,0,0,0-1.52.3,2.6,2.6,0,0,0-1,.82,3.34,3.34,0,0,0-.54,1.21,6.36,6.36,0,0,0-.16,1.49v5.36h-3.27v-11.89Z" transform="translate(0.25 0.5)"/><path class="cls-3" d="M138.93,1295.49v-2.69h3.27v2.69Zm3.27,1.84v11.89h-3.27v-11.89Z" transform="translate(0.25 0.5)"/><path class="cls-3" d="M147.72,1309.22l-4.07-11.89h3.42l2.51,8.12h0l2.5-8.12h3.25l-4,11.89Z" transform="translate(0.25 0.5)"/><path class="cls-3" d="M156.59,1301a3.78,3.78,0,0,1,.58-1.91,4,4,0,0,1,1.29-1.22,5.54,5.54,0,0,1,1.76-.66,9.94,9.94,0,0,1,2-.19,14,14,0,0,1,1.82.12,5.66,5.66,0,0,1,1.68.5,3.17,3.17,0,0,1,1.24,1,2.89,2.89,0,0,1,.48,1.74v6.19a12.85,12.85,0,0,0,.1,1.54,2.83,2.83,0,0,0,.32,1.1h-3.31a5.12,5.12,0,0,1-.15-.56,4,4,0,0,1-.08-.59,4.3,4.3,0,0,1-1.84,1.13,7.6,7.6,0,0,1-2.17.32,5.75,5.75,0,0,1-1.58-.21,3.72,3.72,0,0,1-1.29-.64,2.87,2.87,0,0,1-.86-1.11,3.65,3.65,0,0,1-.31-1.58,3.57,3.57,0,0,1,.35-1.67,3,3,0,0,1,.92-1,4.21,4.21,0,0,1,1.29-.58,12.23,12.23,0,0,1,1.46-.31c.49-.08,1-.14,1.45-.19A7.15,7.15,0,0,0,163,1302a2.19,2.19,0,0,0,.87-.4.9.9,0,0,0,.3-.77,1.81,1.81,0,0,0-.17-.84,1.25,1.25,0,0,0-.46-.48,1.84,1.84,0,0,0-.67-.23,5.27,5.27,0,0,0-.82-.06,2.47,2.47,0,0,0-1.52.42,1.85,1.85,0,0,0-.64,1.38Zm7.55,2.41a1.53,1.53,0,0,1-.52.29,6,6,0,0,1-.67.17c-.23.05-.48.09-.74.12s-.52.06-.79.11l-.72.18a2.57,2.57,0,0,0-.62.31,1.59,1.59,0,0,0-.43.5,1.68,1.68,0,0,0-.16.76,1.65,1.65,0,0,0,.16.74,1.41,1.41,0,0,0,.44.47,2,2,0,0,0,.64.24,4.77,4.77,0,0,0,.76.07,2.93,2.93,0,0,0,1.5-.32,2.24,2.24,0,0,0,.78-.78,2.48,2.48,0,0,0,.31-.9,6.15,6.15,0,0,0,.06-.74Z" transform="translate(0.25 0.5)"/><path class="cls-3" d="M173.29,1292.8v16.42H170V1292.8Z" transform="translate(0.25 0.5)"/><path class="cls-3" d="M182.35,1295.49v-2.69h3.27v2.69Zm3.27,1.84v11.89h-3.27v-11.89Z" transform="translate(0.25 0.5)"/><path class="cls-3" d="M191,1306.26a1.76,1.76,0,0,0,.56.62,2.11,2.11,0,0,0,.79.36,3.59,3.59,0,0,0,.93.12,3.79,3.79,0,0,0,.73-.08,2.59,2.59,0,0,0,.69-.26,1.63,1.63,0,0,0,.52-.46,1.25,1.25,0,0,0,.2-.72c0-.49-.32-.86-1-1.11a20.3,20.3,0,0,0-2.73-.73c-.48-.11-.94-.24-1.39-.38a4.84,4.84,0,0,1-1.21-.58,2.68,2.68,0,0,1-.85-.89,2.48,2.48,0,0,1-.32-1.32,3.57,3.57,0,0,1,.45-1.89,3.28,3.28,0,0,1,1.18-1.16,4.9,4.9,0,0,1,1.66-.6,10.19,10.19,0,0,1,3.76,0,5,5,0,0,1,1.62.62,3.73,3.73,0,0,1,1.18,1.16,3.88,3.88,0,0,1,.57,1.83h-3.11a1.4,1.4,0,0,0-.71-1.27,3.19,3.19,0,0,0-1.52-.34,4.41,4.41,0,0,0-.6,0,1.77,1.77,0,0,0-.58.15,1.06,1.06,0,0,0-.45.33.85.85,0,0,0-.19.59.88.88,0,0,0,.33.71,2.55,2.55,0,0,0,.84.45,10.46,10.46,0,0,0,1.18.31l1.36.3a11,11,0,0,1,1.39.39,4.44,4.44,0,0,1,1.21.61,3,3,0,0,1,.85.94,2.83,2.83,0,0,1,.32,1.39,3.59,3.59,0,0,1-1.7,3.24,5,5,0,0,1-1.74.68,10.1,10.1,0,0,1-2,.2,9.68,9.68,0,0,1-2-.21,5.4,5.4,0,0,1-1.76-.69,4,4,0,0,1-1.27-1.27,4,4,0,0,1-.54-2h3.11A1.72,1.72,0,0,0,191,1306.26Z" transform="translate(0.25 0.5)"/><path class="cls-3" d="M206.8,1301a3.78,3.78,0,0,1,.58-1.91,3.86,3.86,0,0,1,1.29-1.22,5.45,5.45,0,0,1,1.76-.66,9.94,9.94,0,0,1,2-.19,14,14,0,0,1,1.82.12,5.66,5.66,0,0,1,1.68.5,3.25,3.25,0,0,1,1.24,1,2.89,2.89,0,0,1,.48,1.74v6.19a11.07,11.07,0,0,0,.1,1.54,2.67,2.67,0,0,0,.32,1.1h-3.31a2.73,2.73,0,0,1-.15-.56,4,4,0,0,1-.08-.59,4.37,4.37,0,0,1-1.84,1.13,7.6,7.6,0,0,1-2.17.32,5.75,5.75,0,0,1-1.58-.21,3.72,3.72,0,0,1-1.29-.64,2.87,2.87,0,0,1-.86-1.11,3.65,3.65,0,0,1-.31-1.58,3.45,3.45,0,0,1,.35-1.67,3,3,0,0,1,.92-1,4.21,4.21,0,0,1,1.29-.58,12.23,12.23,0,0,1,1.46-.31c.49-.08,1-.14,1.45-.19a7,7,0,0,0,1.26-.21,2.18,2.18,0,0,0,.88-.4.9.9,0,0,0,.3-.77,1.69,1.69,0,0,0-.18-.84,1.12,1.12,0,0,0-.46-.48,1.72,1.72,0,0,0-.66-.23,5.36,5.36,0,0,0-.82-.06,2.47,2.47,0,0,0-1.52.42,1.85,1.85,0,0,0-.64,1.38Zm7.55,2.41a1.53,1.53,0,0,1-.52.29,6,6,0,0,1-.67.17c-.24.05-.48.09-.74.12s-.53.06-.79.11l-.72.18a2.39,2.39,0,0,0-.62.31,1.59,1.59,0,0,0-.43.5,1.56,1.56,0,0,0-.16.76,1.53,1.53,0,0,0,.16.74,1.41,1.41,0,0,0,.44.47,2,2,0,0,0,.64.24,4.77,4.77,0,0,0,.76.07,3,3,0,0,0,1.5-.32,2.24,2.24,0,0,0,.78-.78,2.48,2.48,0,0,0,.31-.9,6.15,6.15,0,0,0,.06-.74Z" transform="translate(0.25 0.5)"/><path class="cls-3" d="M223.25,1297.33V1299h.07a3.68,3.68,0,0,1,1.61-1.5,4.56,4.56,0,0,1,2-.47,5.72,5.72,0,0,1,2.15.35,3.2,3.2,0,0,1,1.32,1,3.74,3.74,0,0,1,.68,1.54,9.67,9.67,0,0,1,.2,2v7.31H228v-6.72a4.11,4.11,0,0,0-.46-2.19,1.76,1.76,0,0,0-1.63-.73,2.26,2.26,0,0,0-1.93.8,4.4,4.4,0,0,0-.6,2.61v6.23h-3.27v-11.89Z" transform="translate(0.25 0.5)"/><path class="cls-3" d="M240.24,1300.7a5.58,5.58,0,0,1,1.25-2,5.43,5.43,0,0,1,1.93-1.26A6.75,6.75,0,0,1,246,1297a6.88,6.88,0,0,1,2.54.45,5.39,5.39,0,0,1,1.94,1.26,5.58,5.58,0,0,1,1.25,2,7.29,7.29,0,0,1,.43,2.59,7.22,7.22,0,0,1-.43,2.57,5.72,5.72,0,0,1-1.25,2,5.36,5.36,0,0,1-1.94,1.25,7.09,7.09,0,0,1-2.54.44,7,7,0,0,1-2.53-.44,5.41,5.41,0,0,1-1.93-1.25,5.72,5.72,0,0,1-1.25-2,7.22,7.22,0,0,1-.43-2.57A7.29,7.29,0,0,1,240.24,1300.7Zm3,4a3.74,3.74,0,0,0,.47,1.22,2.62,2.62,0,0,0,.89.86,2.76,2.76,0,0,0,1.38.32,2.83,2.83,0,0,0,1.39-.32,2.56,2.56,0,0,0,.9-.86,3.74,3.74,0,0,0,.47-1.22,7.12,7.12,0,0,0,.14-1.39,7.33,7.33,0,0,0-.14-1.41,3.65,3.65,0,0,0-.47-1.22,2.65,2.65,0,0,0-.9-.86,2.72,2.72,0,0,0-1.39-.33,2.66,2.66,0,0,0-1.38.33,2.71,2.71,0,0,0-.89.86,3.65,3.65,0,0,0-.47,1.22,7.33,7.33,0,0,0-.14,1.41A7.12,7.12,0,0,0,243.21,1304.68Z" transform="translate(0.25 0.5)"/><path class="cls-3" d="M257.33,1297.33v1.52h.05a3.6,3.6,0,0,1,1.52-1.41,4.66,4.66,0,0,1,2-.43,4.91,4.91,0,0,1,4.1,1.93,5.9,5.9,0,0,1,1,2,8.91,8.91,0,0,1,.33,2.43,8,8,0,0,1-.33,2.3,5.9,5.9,0,0,1-1,2,4.8,4.8,0,0,1-1.64,1.35,4.85,4.85,0,0,1-2.28.51,4.62,4.62,0,0,1-2-.45,3.89,3.89,0,0,1-1.53-1.32h-.05v5.63h-3.26v-16.05Zm4.25,9.43a2.69,2.69,0,0,0,.87-.84,3.52,3.52,0,0,0,.47-1.21,7.3,7.3,0,0,0,.14-1.4,6.53,6.53,0,0,0-.15-1.4,3.88,3.88,0,0,0-.49-1.24,2.84,2.84,0,0,0-.89-.87,2.49,2.49,0,0,0-1.32-.33,2.55,2.55,0,0,0-1.35.33,2.65,2.65,0,0,0-.87.86,3.65,3.65,0,0,0-.47,1.22,7.46,7.46,0,0,0-.14,1.43,6.59,6.59,0,0,0,.15,1.4,3.74,3.74,0,0,0,.48,1.21,2.8,2.8,0,0,0,3.57.84Z" transform="translate(0.25 0.5)"/><path class="cls-3" d="M271.78,1306.37a3.37,3.37,0,0,0,3.82.22,2.08,2.08,0,0,0,.87-1h2.87a5.43,5.43,0,0,1-2.11,3.06,6.25,6.25,0,0,1-3.45.92,6.75,6.75,0,0,1-2.53-.45,5.19,5.19,0,0,1-1.91-1.28,5.88,5.88,0,0,1-1.21-2,7.34,7.34,0,0,1-.42-2.53,7,7,0,0,1,.43-2.49,5.85,5.85,0,0,1,1.25-2,5.67,5.67,0,0,1,1.92-1.32,6.15,6.15,0,0,1,2.47-.48,5.65,5.65,0,0,1,2.64.58,5.25,5.25,0,0,1,1.85,1.58,6.29,6.29,0,0,1,1.05,2.25,8.33,8.33,0,0,1,.23,2.65H271A3.33,3.33,0,0,0,271.78,1306.37Zm3.69-6.26a2.29,2.29,0,0,0-1.78-.64,2.89,2.89,0,0,0-1.3.26,2.53,2.53,0,0,0-.83.66,2.38,2.38,0,0,0-.44.83,4.41,4.41,0,0,0-.15.78h5.32A3.85,3.85,0,0,0,275.47,1300.11Z" transform="translate(0.25 0.5)"/><path class="cls-3" d="M284.59,1297.33V1299h.07a3.68,3.68,0,0,1,1.61-1.5,4.56,4.56,0,0,1,2-.47,5.72,5.72,0,0,1,2.15.35,3.2,3.2,0,0,1,1.32,1,3.74,3.74,0,0,1,.68,1.54,9.67,9.67,0,0,1,.2,2v7.31h-3.27v-6.72a4.11,4.11,0,0,0-.46-2.19,1.77,1.77,0,0,0-1.63-.73,2.26,2.26,0,0,0-1.93.8,4.4,4.4,0,0,0-.6,2.61v6.23h-3.27v-11.89Z" transform="translate(0.25 0.5)"/><path class="cls-3" d="M304.26,1306.26a1.89,1.89,0,0,0,.57.62,2.11,2.11,0,0,0,.79.36,3.59,3.59,0,0,0,.93.12,3.88,3.88,0,0,0,.73-.08,2.59,2.59,0,0,0,.69-.26,1.5,1.5,0,0,0,.51-.46,1.18,1.18,0,0,0,.21-.72c0-.49-.32-.86-1-1.11A19.68,19.68,0,0,0,305,1304c-.48-.11-.94-.24-1.39-.38a4.68,4.68,0,0,1-1.21-.58,2.68,2.68,0,0,1-.85-.89,2.48,2.48,0,0,1-.32-1.32,3.57,3.57,0,0,1,.45-1.89,3.2,3.2,0,0,1,1.18-1.16,4.9,4.9,0,0,1,1.66-.6,10.19,10.19,0,0,1,3.76,0,5,5,0,0,1,1.62.62,3.73,3.73,0,0,1,1.18,1.16,4,4,0,0,1,.57,1.83h-3.11a1.42,1.42,0,0,0-.71-1.27,3.19,3.19,0,0,0-1.52-.34,4.41,4.41,0,0,0-.6,0,1.9,1.9,0,0,0-.59.15,1.09,1.09,0,0,0-.44.33.85.85,0,0,0-.19.59.9.9,0,0,0,.32.71,2.77,2.77,0,0,0,.84.45,11.28,11.28,0,0,0,1.19.31l1.36.3a11.5,11.5,0,0,1,1.39.39,4.24,4.24,0,0,1,1.2.61,2.87,2.87,0,0,1,.86.94,2.83,2.83,0,0,1,.32,1.39,3.59,3.59,0,0,1-1.7,3.24,5,5,0,0,1-1.74.68,10.18,10.18,0,0,1-2,.2,9.61,9.61,0,0,1-2-.21,5.4,5.4,0,0,1-1.76-.69,4,4,0,0,1-1.27-1.27,4,4,0,0,1-.54-2h3.11A1.81,1.81,0,0,0,304.26,1306.26Z" transform="translate(0.25 0.5)"/><path class="cls-3" d="M313.94,1300.7a5.4,5.4,0,0,1,3.17-3.24,6.75,6.75,0,0,1,2.53-.45,6.88,6.88,0,0,1,2.54.45,5.39,5.39,0,0,1,1.94,1.26,5.58,5.58,0,0,1,1.25,2,7.29,7.29,0,0,1,.43,2.59,7.22,7.22,0,0,1-.43,2.57,5.72,5.72,0,0,1-1.25,2,5.36,5.36,0,0,1-1.94,1.25,7.09,7.09,0,0,1-2.54.44,7,7,0,0,1-2.53-.44,5.41,5.41,0,0,1-1.93-1.25,5.55,5.55,0,0,1-1.24-2,7,7,0,0,1-.44-2.57A7.07,7.07,0,0,1,313.94,1300.7Zm3,4a3.74,3.74,0,0,0,.47,1.22,2.62,2.62,0,0,0,.89.86,2.76,2.76,0,0,0,1.38.32,2.83,2.83,0,0,0,1.39-.32,2.48,2.48,0,0,0,.9-.86,3.74,3.74,0,0,0,.47-1.22,7.12,7.12,0,0,0,.14-1.39,7.33,7.33,0,0,0-.14-1.41,3.65,3.65,0,0,0-.47-1.22,2.56,2.56,0,0,0-.9-.86,2.72,2.72,0,0,0-1.39-.33,2.66,2.66,0,0,0-1.38.33,2.71,2.71,0,0,0-.89.86,3.65,3.65,0,0,0-.47,1.22,7.33,7.33,0,0,0-.14,1.41A7.12,7.12,0,0,0,316.9,1304.68Z" transform="translate(0.25 0.5)"/><path class="cls-3" d="M336,1309.22v-1.66h-.07a3.68,3.68,0,0,1-1.61,1.5,4.69,4.69,0,0,1-2,.46,5.65,5.65,0,0,1-2.15-.35,3.11,3.11,0,0,1-1.33-1,3.94,3.94,0,0,1-.68-1.54,9.7,9.7,0,0,1-.19-2v-7.31h3.26V1304a4.22,4.22,0,0,0,.46,2.2,1.81,1.81,0,0,0,1.64.73,2.26,2.26,0,0,0,1.93-.8,4.4,4.4,0,0,0,.6-2.61v-6.23h3.26v11.89Z" transform="translate(0.25 0.5)"/><path class="cls-3" d="M344.66,1297.33v2.21h0a4,4,0,0,1,1.52-1.83,4.15,4.15,0,0,1,1.08-.52,3.94,3.94,0,0,1,1.19-.18,2.43,2.43,0,0,1,.72.11v3c-.16,0-.34-.06-.56-.08a4.4,4.4,0,0,0-.62,0,3.44,3.44,0,0,0-1.51.3,2.64,2.64,0,0,0-1,.82,3.34,3.34,0,0,0-.54,1.21,7,7,0,0,0-.16,1.49v5.36h-3.26v-11.89Z" transform="translate(0.25 0.5)"/><path class="cls-3" d="M355.77,1299.47a2.35,2.35,0,0,0-1.31.35,2.91,2.91,0,0,0-.86.92,4,4,0,0,0-.47,1.25,6.17,6.17,0,0,0-.14,1.34,5.9,5.9,0,0,0,.14,1.31,3.89,3.89,0,0,0,.45,1.21,2.53,2.53,0,0,0,.83.89,2.34,2.34,0,0,0,1.29.34,2.39,2.39,0,0,0,1.81-.66,3.09,3.09,0,0,0,.79-1.75h3.15a5.38,5.38,0,0,1-1.84,3.61,6,6,0,0,1-3.88,1.24,6.48,6.48,0,0,1-2.45-.45,5.47,5.47,0,0,1-1.9-1.25,5.78,5.78,0,0,1-1.22-1.92,6.71,6.71,0,0,1-.44-2.45,8.19,8.19,0,0,1,.4-2.57,5.88,5.88,0,0,1,1.19-2.05,5.45,5.45,0,0,1,1.91-1.34,6.51,6.51,0,0,1,2.57-.48,7.61,7.61,0,0,1,2,.27,5.79,5.79,0,0,1,1.75.84,4.57,4.57,0,0,1,1.25,1.41,4.37,4.37,0,0,1,.55,2h-3.19A2.19,2.19,0,0,0,355.77,1299.47Z" transform="translate(0.25 0.5)"/><path class="cls-3" d="M366.79,1306.37a3.37,3.37,0,0,0,3.82.22,2.08,2.08,0,0,0,.87-1h2.88a5.44,5.44,0,0,1-2.12,3.06,6.25,6.25,0,0,1-3.45.92,6.75,6.75,0,0,1-2.53-.45,5.19,5.19,0,0,1-1.91-1.28,5.88,5.88,0,0,1-1.21-2,7.34,7.34,0,0,1-.42-2.53,7,7,0,0,1,.43-2.49,6,6,0,0,1,1.25-2,5.67,5.67,0,0,1,1.92-1.32,6.15,6.15,0,0,1,2.47-.48,5.65,5.65,0,0,1,2.64.58,5.29,5.29,0,0,1,1.86,1.58,6.45,6.45,0,0,1,1,2.25,8.33,8.33,0,0,1,.23,2.65H366A3.33,3.33,0,0,0,366.79,1306.37Zm3.69-6.26a2.29,2.29,0,0,0-1.78-.64,2.92,2.92,0,0,0-1.3.26,2.53,2.53,0,0,0-.83.66,2.38,2.38,0,0,0-.44.83,4.41,4.41,0,0,0-.15.78h5.32A3.85,3.85,0,0,0,370.48,1300.11Z" transform="translate(0.25 0.5)"/><path class="cls-3" d="M386,1297.33v1.52H386a3.6,3.6,0,0,1,1.52-1.41,4.63,4.63,0,0,1,2-.43,5.09,5.09,0,0,1,2.42.53,5,5,0,0,1,1.67,1.4,5.74,5.74,0,0,1,1,2,8.91,8.91,0,0,1,.33,2.43,8,8,0,0,1-.33,2.3,5.9,5.9,0,0,1-1,2,4.8,4.8,0,0,1-3.93,1.86,4.61,4.61,0,0,1-2-.45,3.89,3.89,0,0,1-1.53-1.32h-.05v5.63h-3.26v-16.05Zm4.25,9.43a2.69,2.69,0,0,0,.87-.84,3.52,3.52,0,0,0,.47-1.21,7.3,7.3,0,0,0,.14-1.4,6.53,6.53,0,0,0-.15-1.4,3.88,3.88,0,0,0-.49-1.24,2.84,2.84,0,0,0-.89-.87,2.49,2.49,0,0,0-1.32-.33,2.55,2.55,0,0,0-1.35.33,2.65,2.65,0,0,0-.87.86,3.65,3.65,0,0,0-.47,1.22,6.74,6.74,0,0,0-.14,1.43,6.59,6.59,0,0,0,.15,1.4,3.74,3.74,0,0,0,.48,1.21,2.66,2.66,0,0,0,.89.84,3,3,0,0,0,2.68,0Z" transform="translate(0.25 0.5)"/><path class="cls-3" d="M400,1297.33v2.21h0a4,4,0,0,1,1.52-1.83,4.48,4.48,0,0,1,1.08-.52,4,4,0,0,1,1.2-.18,2.41,2.41,0,0,1,.71.11v3a5.53,5.53,0,0,0-.55-.08,4.59,4.59,0,0,0-.62,0,3.46,3.46,0,0,0-1.52.3,2.53,2.53,0,0,0-1,.82,3,3,0,0,0-.54,1.21,6.36,6.36,0,0,0-.16,1.49v5.36h-3.27v-11.89Z" transform="translate(0.25 0.5)"/><path class="cls-3" d="M405.54,1300.7a5.45,5.45,0,0,1,3.18-3.24,6.75,6.75,0,0,1,2.53-.45,6.88,6.88,0,0,1,2.54.45,5.38,5.38,0,0,1,3.18,3.24,7.07,7.07,0,0,1,.44,2.59,7,7,0,0,1-.44,2.57,5.55,5.55,0,0,1-1.24,2,5.36,5.36,0,0,1-1.94,1.25,7.09,7.09,0,0,1-2.54.44,7,7,0,0,1-2.53-.44,5.41,5.41,0,0,1-1.93-1.25,5.58,5.58,0,0,1-1.25-2,7.22,7.22,0,0,1-.43-2.57A7.29,7.29,0,0,1,405.54,1300.7Zm3,4a3.74,3.74,0,0,0,.47,1.22,2.53,2.53,0,0,0,.89.86,2.76,2.76,0,0,0,1.38.32,2.83,2.83,0,0,0,1.39-.32,2.65,2.65,0,0,0,.9-.86,3.74,3.74,0,0,0,.47-1.22,7.12,7.12,0,0,0,.14-1.39,7.33,7.33,0,0,0-.14-1.41,3.65,3.65,0,0,0-.47-1.22,2.55,2.55,0,0,0-2.29-1.19,2.66,2.66,0,0,0-1.38.33,2.62,2.62,0,0,0-.89.86,3.65,3.65,0,0,0-.47,1.22,7.33,7.33,0,0,0-.14,1.41A7.12,7.12,0,0,0,408.51,1304.68Z" transform="translate(0.25 0.5)"/><path class="cls-3" d="M418.56,1310.69a1.94,1.94,0,0,0,.89-.19c.25-.13.38-.42.38-.87v-12.3h3.26v12.46a5.68,5.68,0,0,1-.19,1.59,2.5,2.5,0,0,1-.67,1.12,2.83,2.83,0,0,1-1.28.66,7.74,7.74,0,0,1-2,.22,5.44,5.44,0,0,1-1-.09v-2.69A2.14,2.14,0,0,0,418.56,1310.69Zm1.27-15.2v-2.69h3.26v2.69Z" transform="translate(0.25 0.5)"/><path class="cls-3" d="M429.42,1306.37a2.93,2.93,0,0,0,2.11.71,2.89,2.89,0,0,0,1.7-.49,2.06,2.06,0,0,0,.88-1H437a5.43,5.43,0,0,1-2.11,3.06,6.25,6.25,0,0,1-3.45.92,6.75,6.75,0,0,1-2.53-.45,5.19,5.19,0,0,1-1.91-1.28,5.72,5.72,0,0,1-1.21-2,7.34,7.34,0,0,1-.42-2.53,7,7,0,0,1,.43-2.49,6,6,0,0,1,1.24-2,5.81,5.81,0,0,1,1.93-1.32,6.15,6.15,0,0,1,2.47-.48,5.65,5.65,0,0,1,2.64.58,5.25,5.25,0,0,1,1.85,1.58,6.29,6.29,0,0,1,1,2.25,8.63,8.63,0,0,1,.23,2.65h-8.58A3.33,3.33,0,0,0,429.42,1306.37Zm3.69-6.26a2.29,2.29,0,0,0-1.78-.64,2.89,2.89,0,0,0-1.3.26,2.53,2.53,0,0,0-.83.66,2.38,2.38,0,0,0-.44.83,4.41,4.41,0,0,0-.15.78h5.31A3.76,3.76,0,0,0,433.11,1300.11Z" transform="translate(0.25 0.5)"/><path class="cls-3" d="M444.8,1299.47a2.37,2.37,0,0,0-1.31.35,2.91,2.91,0,0,0-.86.92,4,4,0,0,0-.47,1.25,6.85,6.85,0,0,0-.14,1.34,6.56,6.56,0,0,0,.14,1.31,3.89,3.89,0,0,0,.45,1.21,2.47,2.47,0,0,0,.84.89,2.29,2.29,0,0,0,1.28.34,2.38,2.38,0,0,0,1.81-.66,3,3,0,0,0,.79-1.75h3.15a5.34,5.34,0,0,1-1.84,3.61,6,6,0,0,1-3.88,1.24,6.48,6.48,0,0,1-2.45-.45,5.47,5.47,0,0,1-1.9-1.25,5.78,5.78,0,0,1-1.22-1.92,6.71,6.71,0,0,1-.44-2.45,7.91,7.91,0,0,1,.41-2.57,5.86,5.86,0,0,1,1.18-2.05,5.45,5.45,0,0,1,1.91-1.34,6.52,6.52,0,0,1,2.58-.48,7.59,7.59,0,0,1,2,.27,5.68,5.68,0,0,1,1.75.84,4.57,4.57,0,0,1,1.25,1.41,4.37,4.37,0,0,1,.56,2h-3.2A2.19,2.19,0,0,0,444.8,1299.47Z" transform="translate(0.25 0.5)"/><path class="cls-3" d="M458.86,1297.33v2.18h-2.4v5.89a1.65,1.65,0,0,0,.28,1.11,1.61,1.61,0,0,0,1.1.27l.53,0,.49-.07v2.53a6.37,6.37,0,0,1-.92.09c-.34,0-.67,0-1,0a9.39,9.39,0,0,1-1.44-.1,3.47,3.47,0,0,1-1.2-.4,2.14,2.14,0,0,1-.81-.85,3,3,0,0,1-.3-1.45v-7h-2v-2.18h2v-3.57h3.26v3.57Z" transform="translate(0.25 0.5)"/><path class="cls-3" d="M470.08,1292.8v6h.05a3.52,3.52,0,0,1,1.62-1.35,5.54,5.54,0,0,1,2.13-.42,4.5,4.5,0,0,1,1.77.37,4.55,4.55,0,0,1,1.57,1.12,5.77,5.77,0,0,1,1.14,2,9.22,9.22,0,0,1,0,5.63,5.63,5.63,0,0,1-1.14,1.94,4.45,4.45,0,0,1-1.57,1.13,4.5,4.5,0,0,1-1.77.37,6.19,6.19,0,0,1-2.35-.42,3,3,0,0,1-1.57-1.4h0v1.52h-3.11V1292.8Zm5.29,9a3.83,3.83,0,0,0-.51-1.22,2.65,2.65,0,0,0-.86-.84,2.66,2.66,0,0,0-2.49,0,2.62,2.62,0,0,0-.88.84,3.6,3.6,0,0,0-.5,1.22,6.19,6.19,0,0,0-.17,1.45,6.07,6.07,0,0,0,.17,1.42,3.6,3.6,0,0,0,.5,1.22,2.62,2.62,0,0,0,.88.84,2.66,2.66,0,0,0,2.49,0,2.65,2.65,0,0,0,.86-.84,3.83,3.83,0,0,0,.51-1.22,6.06,6.06,0,0,0,.16-1.42A6.2,6.2,0,0,0,475.37,1301.84Z" transform="translate(0.25 0.5)"/><path class="cls-3" d="M485.26,1312.76a4.68,4.68,0,0,1-2.62.62c-.34,0-.67,0-1,0l-1-.08v-2.69l.94.09a6.26,6.26,0,0,0,1,0,1.26,1.26,0,0,0,.95-.5,1.65,1.65,0,0,0,.31-1,2,2,0,0,0-.14-.74l-4.16-11.15H483l2.69,8.14h.05l2.6-8.14h3.38l-5,13.36A4,4,0,0,1,485.26,1312.76Z" transform="translate(0.25 0.5)"/><path class="cls-3" d="M508.4,1292.8a5.47,5.47,0,0,1,2,.35,4.64,4.64,0,0,1,1.51,1,4.21,4.21,0,0,1,1,1.44,4.63,4.63,0,0,1,.33,1.76,4.94,4.94,0,0,1-.61,2.51,3.81,3.81,0,0,1-2,1.61v0a2.68,2.68,0,0,1,1.1.57,3.07,3.07,0,0,1,.71.89,4,4,0,0,1,.4,1.14,8.82,8.82,0,0,1,.18,1.24c0,.26,0,.57,0,.92s0,.72.08,1.08a6.75,6.75,0,0,0,.19,1.05,2.32,2.32,0,0,0,.38.84h-3.61a6.13,6.13,0,0,1-.37-1.86q-.07-1.08-.21-2.07a3.25,3.25,0,0,0-.78-1.89,2.69,2.69,0,0,0-2-.6h-3.61v6.42h-3.61V1292.8Zm-1.29,7.43a2.7,2.7,0,0,0,1.86-.56,2.25,2.25,0,0,0,.62-1.79,2.17,2.17,0,0,0-.62-1.74,2.75,2.75,0,0,0-1.86-.54h-4v4.63Z" transform="translate(0.25 0.5)"/><path class="cls-3" d="M515.87,1300.7a5.56,5.56,0,0,1,1.24-2,5.47,5.47,0,0,1,1.94-1.26,6.75,6.75,0,0,1,2.53-.45,6.88,6.88,0,0,1,2.54.45,5.38,5.38,0,0,1,3.18,3.24,7.29,7.29,0,0,1,.44,2.59,7.22,7.22,0,0,1-.44,2.57,5.55,5.55,0,0,1-1.24,2,5.45,5.45,0,0,1-1.94,1.25,7.09,7.09,0,0,1-2.54.44,7,7,0,0,1-2.53-.44,5.45,5.45,0,0,1-1.94-1.25,5.7,5.7,0,0,1-1.24-2,7.22,7.22,0,0,1-.44-2.57A7.29,7.29,0,0,1,515.87,1300.7Zm3,4a3.74,3.74,0,0,0,.47,1.22,2.53,2.53,0,0,0,.89.86,2.71,2.71,0,0,0,1.38.32,2.83,2.83,0,0,0,1.39-.32,2.53,2.53,0,0,0,.89-.86,3.75,3.75,0,0,0,.48-1.22,7.12,7.12,0,0,0,.13-1.39,7.32,7.32,0,0,0-.13-1.41,3.66,3.66,0,0,0-.48-1.22,2.62,2.62,0,0,0-.89-.86,2.72,2.72,0,0,0-1.39-.33,2.52,2.52,0,0,0-2.27,1.19,3.65,3.65,0,0,0-.47,1.22,7.33,7.33,0,0,0-.14,1.41A7.12,7.12,0,0,0,518.84,1304.68Z" transform="translate(0.25 0.5)"/><path class="cls-3" d="M533,1297.33V1299H533a3.68,3.68,0,0,1,1.61-1.5,4.56,4.56,0,0,1,2-.47,5.68,5.68,0,0,1,2.15.35,3.3,3.3,0,0,1,1.33,1,3.86,3.86,0,0,1,.67,1.54,9,9,0,0,1,.2,2v7.31h-3.27v-6.72a4.11,4.11,0,0,0-.46-2.19,1.76,1.76,0,0,0-1.63-.73,2.26,2.26,0,0,0-1.93.8,4.4,4.4,0,0,0-.6,2.61v6.23h-3.26v-11.89Z" transform="translate(0.25 0.5)"/><path class="cls-3" d="M543.36,1301a3.69,3.69,0,0,1,.57-1.91,4,4,0,0,1,1.29-1.22,5.54,5.54,0,0,1,1.76-.66,10,10,0,0,1,2-.19,14,14,0,0,1,1.81.12,5.57,5.57,0,0,1,1.68.5,3.17,3.17,0,0,1,1.24,1,2.89,2.89,0,0,1,.49,1.74v6.19a12.88,12.88,0,0,0,.09,1.54,2.83,2.83,0,0,0,.32,1.1h-3.31a5.12,5.12,0,0,1-.15-.56,4,4,0,0,1-.08-.59,4.3,4.3,0,0,1-1.84,1.13,7.58,7.58,0,0,1-2.16.32,5.77,5.77,0,0,1-1.59-.21,3.72,3.72,0,0,1-1.29-.64,3,3,0,0,1-.86-1.11A3.65,3.65,0,0,1,543,1306a3.57,3.57,0,0,1,.35-1.67,3,3,0,0,1,.92-1,4.21,4.21,0,0,1,1.29-.58,12.66,12.66,0,0,1,1.46-.31c.49-.08,1-.14,1.45-.19a7.15,7.15,0,0,0,1.27-.21,2.13,2.13,0,0,0,.87-.4.85.85,0,0,0,.3-.77,1.81,1.81,0,0,0-.17-.84,1.25,1.25,0,0,0-.46-.48,1.77,1.77,0,0,0-.67-.23,5.17,5.17,0,0,0-.82-.06,2.42,2.42,0,0,0-1.51.42,1.82,1.82,0,0,0-.65,1.38Zm7.54,2.41a1.53,1.53,0,0,1-.52.29,5.77,5.77,0,0,1-.66.17q-.36.08-.75.12c-.26,0-.52.06-.78.11s-.49.11-.73.18a2.57,2.57,0,0,0-.62.31,1.44,1.44,0,0,0-.42.5,1.55,1.55,0,0,0-.17.76,1.53,1.53,0,0,0,.17.74,1.29,1.29,0,0,0,.43.47,2.09,2.09,0,0,0,.65.24,4.54,4.54,0,0,0,.75.07,2.93,2.93,0,0,0,1.5-.32,2.24,2.24,0,0,0,.78-.78,2.48,2.48,0,0,0,.31-.9,6.15,6.15,0,0,0,.06-.74Z" transform="translate(0.25 0.5)"/><path class="cls-3" d="M559.8,1297.33V1299h.07a3.68,3.68,0,0,1,1.61-1.5,4.56,4.56,0,0,1,2-.47,5.68,5.68,0,0,1,2.15.35,3.23,3.23,0,0,1,1.33,1,3.87,3.87,0,0,1,.68,1.54,9.7,9.7,0,0,1,.19,2v7.31h-3.27v-6.72a4.11,4.11,0,0,0-.46-2.19,1.76,1.76,0,0,0-1.63-.73,2.26,2.26,0,0,0-1.93.8,4.4,4.4,0,0,0-.6,2.61v6.23H556.7v-11.89Z" transform="translate(0.25 0.5)"/><path class="cls-3" d="M588.62,1292.8v3h-7.94v3.8h6.88v2.8h-6.88v6.79h-3.61V1292.8Z" transform="translate(0.25 0.5)"/><path class="cls-3" d="M598.42,1309.22v-1.66h-.07a3.73,3.73,0,0,1-1.61,1.5,4.73,4.73,0,0,1-2,.46,5.72,5.72,0,0,1-2.15-.35,3.08,3.08,0,0,1-1.32-1,3.94,3.94,0,0,1-.68-1.54,9.7,9.7,0,0,1-.19-2v-7.31h3.26V1304a4.22,4.22,0,0,0,.46,2.2,1.8,1.8,0,0,0,1.64.73,2.26,2.26,0,0,0,1.93-.8,4.4,4.4,0,0,0,.6-2.61v-6.23h3.26v11.89Z" transform="translate(0.25 0.5)"/><path class="cls-3" d="M607.11,1297.33v2.21h0a4,4,0,0,1,.62-1,4.22,4.22,0,0,1,.89-.8,4.37,4.37,0,0,1,1.09-.52A3.94,3.94,0,0,1,611,1297a2.48,2.48,0,0,1,.72.11v3c-.16,0-.34-.06-.56-.08a4.4,4.4,0,0,0-.62,0,3.49,3.49,0,0,0-1.52.3,2.68,2.68,0,0,0-1,.82,3.34,3.34,0,0,0-.54,1.21,7,7,0,0,0-.16,1.49v5.36H604v-11.89Z" transform="translate(0.25 0.5)"/><path class="cls-3" d="M621,1309.22v-1.66h-.07a3.68,3.68,0,0,1-1.61,1.5,4.69,4.69,0,0,1-2,.46,5.72,5.72,0,0,1-2.15-.35,3.08,3.08,0,0,1-1.32-1,3.8,3.8,0,0,1-.68-1.54,9.67,9.67,0,0,1-.2-2v-7.31h3.27V1304a4.12,4.12,0,0,0,.46,2.2,1.79,1.79,0,0,0,1.63.73,2.26,2.26,0,0,0,1.93-.8,4.4,4.4,0,0,0,.6-2.61v-6.23h3.27v11.89Z" transform="translate(0.25 0.5)"/><path class="cls-3" d="M633.12,1297.33v2.18h-2.39v5.89a1.1,1.1,0,0,0,1.38,1.38l.53,0,.48-.07v2.53a6.1,6.1,0,0,1-.92.09c-.33,0-.66,0-1,0a9.35,9.35,0,0,1-1.43-.1,3.4,3.4,0,0,1-1.2-.4,2.17,2.17,0,0,1-.82-.85,3.17,3.17,0,0,1-.29-1.45v-7h-2v-2.18h2v-3.57h3.26v3.57Z" transform="translate(0.25 0.5)"/><path class="cls-3" d="M634.55,1301a3.88,3.88,0,0,1,.57-1.91,4,4,0,0,1,1.29-1.22,5.54,5.54,0,0,1,1.76-.66,10,10,0,0,1,2-.19,14.14,14.14,0,0,1,1.82.12,5.51,5.51,0,0,1,1.67.5,3.28,3.28,0,0,1,1.25,1,2.89,2.89,0,0,1,.48,1.74v6.19a12.88,12.88,0,0,0,.09,1.54,2.83,2.83,0,0,0,.32,1.1h-3.31a5.12,5.12,0,0,1-.15-.56c0-.2-.06-.39-.08-.59a4.25,4.25,0,0,1-1.84,1.13,7.53,7.53,0,0,1-2.16.32,5.77,5.77,0,0,1-1.59-.21,3.72,3.72,0,0,1-1.29-.64,3.07,3.07,0,0,1-.86-1.11,3.8,3.8,0,0,1-.31-1.58,3.44,3.44,0,0,1,.36-1.67,2.94,2.94,0,0,1,.92-1,4,4,0,0,1,1.29-.58,12.23,12.23,0,0,1,1.46-.31c.49-.08,1-.14,1.45-.19a7.19,7.19,0,0,0,1.26-.21,2.07,2.07,0,0,0,.87-.4.85.85,0,0,0,.3-.77,1.7,1.7,0,0,0-.17-.84,1.18,1.18,0,0,0-.46-.48,1.72,1.72,0,0,0-.67-.23,5.13,5.13,0,0,0-.81-.06,2.45,2.45,0,0,0-1.52.42,1.81,1.81,0,0,0-.64,1.38Zm7.54,2.41a1.48,1.48,0,0,1-.51.29,6,6,0,0,1-.67.17q-.36.08-.75.12c-.26,0-.52.06-.78.11s-.49.11-.72.18a2.64,2.64,0,0,0-.63.31,1.7,1.7,0,0,0-.42.5,1.56,1.56,0,0,0-.16.76,1.53,1.53,0,0,0,.16.74,1.39,1.39,0,0,0,.43.47,2.09,2.09,0,0,0,.65.24,4.67,4.67,0,0,0,.76.07,2.92,2.92,0,0,0,1.49-.32,2.19,2.19,0,0,0,.79-.78,2.68,2.68,0,0,0,.31-.9c0-.31.05-.56.05-.74Z" transform="translate(0.25 0.5)"/><rect class="cls-3" x="193.75" y="486" width="363" height="363" rx="52.37"/><path class="cls-4" d="M417.54,768.68H333.08l-4.65,6.61H422.2ZM424,745.29H412.67L438,782h20.15Zm-14.84,9.8H340.84l-4.64,6.62h77.59ZM327,745.29l-19.76,21.08-14.83,15.82h20.16l25.76-36.9ZM476.1,634.89c0-20.44.78-35.9,0-47.56-.82-11.93-3.29-19.88-9.94-25.12a24.75,24.75,0,0,0-5.88-3.26c-12.06-4.94-33.34-6.51-52-7-13.13-.32-25-.09-31.33-.09-1.41,0-3.16,0-5.18,0-14.64.09-43.64.63-64.53,3.46-11.24,1.52-20.14,3.7-23.18,6.83-5,5.11-7.63,10.49-9,25.13-1.24,13-1.5,33.25-1.5,67,0,.58.05,2.71.1,7,0,1.81,0,4,.05,6.64,0,0-1,48.3,8.85,63.58,2.75,4.29,13.2,6.72,24.71,8.09a319.19,319.19,0,0,0,36.46,1.77l28.07-.07,36.51-.09,18.08-.05a137.76,137.76,0,0,0,24.81-1.89c7-1.33,13-3.52,16.42-7,3.92-3.92,6.1-17.12,7.31-31.74,1.88-22.72,1.4-48.85,1.4-48.85S476.1,646,476.1,634.89Zm-188,49.18c0-5.31,4-9.62,8.87-9.62a9,9,0,0,1,8.49,6.88,10.32,10.32,0,0,1,.17,4.76,9.06,9.06,0,0,1-8.66,7.6C292.08,693.69,288.1,689.38,288.1,684.07Zm19.8,40.12a6.57,6.57,0,0,1-3.82,1.23c-3.88,0-7-3.41-7-7.61s3.13-7.62,7-7.62a6.89,6.89,0,0,1,6,3.76,7.9,7.9,0,0,1,1,3.86A7.76,7.76,0,0,1,307.9,724.19Zm63.58-64-15.12,0-22.43,0-36.65.08c-6.08,0-10.16-3.88-10.16-8.14,0-3.38-1.87-42.95,3.15-64.85,1.3-5.66,3.06-10.14,5.43-12.51s6.35-4,11.56-5.26c21.72-5.47,62.38-4,64.2-4h.33c4.21.22,10,4.51,10,10.37,0,1.32,0,5.55,0,11.36,0,6.47,0,14.9,0,23.43,0,11.26,0,22.7,0,30.08,0,4.94,0,8.06,0,8.06S381.08,660.17,371.48,660.17Zm74.75,64.75H446c-3.87,0-7-3.41-7-7.62a7.81,7.81,0,0,1,2.6-5.9A6.65,6.65,0,0,1,446,709.7c3.87,0,7,3.41,7,7.61S450,724.81,446.23,724.92Zm6.37-31.42c-4.9,0-8.86-4.3-8.86-9.62s4-9.61,8.86-9.61,8.86,4.3,8.86,9.61S457.49,693.5,452.6,693.5Z" transform="translate(0.25 0.5)"/></svg>